<svg enable-background="new 0 0 169 34" height="34" viewBox="0 0 169 34" width="169" xmlns="http://www.w3.org/2000/svg"><path d="m98.955 23.733h-2.081v-22.953h7.009c5.723 0 7.682 3.305 7.682 6.886s-1.959 6.886-7.682 6.886h-4.927v9.181zm0-11.109h5.203c4.315 0 5.141-2.755 5.141-4.958s-.827-4.958-5.141-4.958h-5.203zm20.238-2.601c-2.05 0-3.397.367-4.591.765v-1.837c1.347-.581 3.122-.826 4.591-.826 4.591 0 5.785 2.081 5.785 5.141v10.466h-1.194l-.459-1.224c-1.377 1.01-3.091 1.53-4.621 1.53-4.009 0-5.356-2.357-5.356-4.928 0-2.601 1.439-4.529 5.448-4.774l4.04-.245v-.857c-.001-2.232-.796-3.211-3.643-3.211zm-.551 5.968c-2.173.214-3.122 1.347-3.122 3.121 0 1.377.337 3.03 3.244 3.03 1.653 0 2.754-.46 4.07-1.224v-5.325zm13.068 3.458c-.337.336-.582.765-.582 1.132 0 .765.367 1.102 1.163 1.193l5.203.612c2.877.306 4.193 1.439 4.193 4.101 0 3.734-3.734 5.203-7.957 5.203-4.285 0-6.855-1.255-6.855-4.621 0-2.081 1.439-3.459 3.153-4.04v-.031c-.582-.398-.979-1.01-.979-2.02 0-.856.52-1.56 1.163-2.081-1.836-1.01-2.448-2.877-2.448-5.019 0-3.152 1.346-5.754 5.968-5.754.949 0 1.745.122 2.449.306h5.203v1.163l-2.571.735c.643.979.887 2.203.887 3.55 0 3.153-1.347 5.754-5.968 5.754-.767.001-1.441-.061-2.022-.183zm.887 4.131c-2.02.46-3.734 1.408-3.734 3.367 0 2.265 1.714 2.908 4.866 2.908 3.061 0 5.937-.765 5.937-3.367 0-1.561-.735-2.173-2.601-2.388zm5.111-9.701c0-2.02-.398-3.887-3.979-3.887s-3.978 1.867-3.978 3.887.398 3.886 3.978 3.886 3.979-1.866 3.979-3.886zm11.498-5.754c5.203 0 5.815 3.55 5.815 7.957v.979h-10.1c.123 2.662.827 5.081 4.285 5.081 2.203 0 3.55-.214 5.05-.857v1.836c-1.714.765-3.55.918-5.05.918-5.172 0-6.427-3.55-6.427-7.957s1.254-7.957 6.427-7.957zm-4.285 7.192h7.957c0-2.724-.153-5.295-3.673-5.295-3.55.001-4.192 2.541-4.284 5.295zm18.27-.367c4.346.398 5.387 1.867 5.387 4.376 0 2.356-1.5 4.713-6.151 4.713-1.469 0-3.581-.368-4.56-.765v-1.836c.949.336 2.418.704 4.591.704 3.183 0 4.04-1.347 4.04-2.785 0-1.408-.429-2.387-3.458-2.632-4.438-.398-5.356-1.959-5.356-4.07 0-2.173 1.408-4.529 5.723-4.529 1.438 0 3.06.183 4.407.765v1.837c-1.193-.398-2.387-.704-4.438-.704-3.03 0-3.673 1.133-3.673 2.632 0 1.345.55 2.049 3.488 2.294zm-146.007-4.623h-7.497c-.194 0-.35.157-.35.35v3.666c0 .193.157.35.35.35h2.925v4.555s-.657.223-2.472.223c-2.142 0-5.134-.783-5.134-7.362 0-6.582 3.116-7.447 6.041-7.447 2.532 0 3.623.446 4.317.66.218.067.42-.15.42-.344l.837-3.541c0-.09-.031-.199-.134-.274-.283-.2-2.003-1.163-6.348-1.163-5.005 0-10.139 2.129-10.139 12.366 0 10.241 5.878 11.766 10.832 11.766 4.102 0 6.589-1.752 6.589-1.752.102-.057.114-.2.114-.265v-11.437c0-.194-.157-.351-.351-.351zm38.945-9.101c0-.195-.155-.352-.349-.352h-4.221c-.193 0-.349.157-.349.352 0 .001.001 8.158.001 8.158h-6.58v-8.158c0-.195-.156-.352-.349-.352h-4.221c-.192 0-.349.157-.349.352v22.095c0 .194.157.353.349.353h4.221c.193 0 .349-.158.349-.353v-9.453h6.58s-.012 9.452-.012 9.453c0 .194.157.353.349.353h4.232c.193 0 .348-.158.349-.353zm-30.826 2.899c0-1.52-1.218-2.748-2.722-2.748-1.502 0-2.722 1.228-2.722 2.748 0 1.519 1.22 2.751 2.722 2.751 1.504 0 2.722-1.232 2.722-2.751zm-.301 14.532c0-.566 0-10.197 0-10.197 0-.194-.156-.352-.349-.352h-4.208c-.192 0-.365.199-.365.393v14.613c0 .429.268.556.614.556h3.792c.416 0 .518-.203.518-.564-.002-.783-.002-3.854-.002-4.449zm47.509-10.516h-4.189c-.192 0-.349.158-.349.353v10.831s-1.064.779-2.575.779-1.911-.685-1.911-2.165 0-9.444 0-9.444c0-.195-.156-.353-.349-.353h-4.251c-.192 0-.349.158-.349.353v10.16c0 4.397 2.448 5.472 5.816 5.472 2.763 0 4.991-1.526 4.991-1.526s.106.804.154.9.173.19.309.19l2.705-.012c.192 0 .349-.157.349-.351l-.002-14.833c0-.195-.156-.354-.349-.354zm11.679-.496c-2.379 0-3.997 1.061-3.997 1.061v-7.48c0-.195-.156-.352-.348-.352h-4.233c-.193 0-.349.157-.349.352v22.095c0 .194.156.353.349.353h2.937c.132 0 .232-.069.306-.188.073-.118.178-1.018.178-1.018s1.732 1.64 5.009 1.64c3.847 0 6.053-1.952 6.053-8.764-.001-6.809-3.524-7.699-5.905-7.699zm-1.652 12.446c-1.453-.045-2.438-.704-2.438-.704v-6.995s.971-.596 2.165-.702c1.509-.135 2.962.321 2.962 3.919 0 3.795-.656 4.543-2.689 4.482zm-45.48-11.985h-3.166s-.005-4.183-.005-4.184c0-.158-.081-.238-.265-.238h-4.315c-.168 0-.258.074-.258.235v4.322s-2.162.522-2.309.564c-.145.043-.253.177-.253.337v2.716c0 .195.156.353.349.353h2.212v6.535c0 4.858 3.404 5.335 5.702 5.335 1.05 0 2.305-.338 2.513-.414.125-.045.198-.175.198-.317l.004-2.991c0-.195-.164-.353-.35-.353-.184 0-.657.076-1.142.076-1.556 0-2.082-.723-2.082-1.66 0-.935-.001-6.211-.001-6.211h3.167c.193 0 .349-.158.349-.353v-3.4c.001-.195-.156-.352-.348-.352z" fill="#fff"/></svg>